<svg xmlns="http://www.w3.org/2000/svg" xmlns:xlink="http://www.w3.org/1999/xlink" aria-hidden="true" role="img" class="iconify iconify--logos" width="35.93" height="32" preserveAspectRatio="xMidYMid meet" viewBox="0 0 256 228"><path fill="#00D8FF" d="M210.483 73.824a171.23 171.23 0 0 0-8.24-2.597c.465-1.9.893-3.777 1.273-5.621c6.238-30.281 2.16-54.676-11.769-68.596c-13.355-13.955-36.647-19.807-74.933-5.95c-2.846 1.155-5.665 2.425-8.43 3.807c-2.813-1.395-5.657-2.68-8.529-3.825c-38.456-13.961-61.771-8.066-75.104 5.973c-13.997 14.6-17.374 38.629-11.212 68.195c.54 2.917.997 5.851 1.485 8.781c-2.694.795-5.331 1.588-7.923 2.425c-24.694 7.797-38.711 21.277-38.711 44.761c0 23.632 14.441 36.933 39.354 45.243c2.898.908 5.797 1.754 8.686 2.535c-.345 1.877-.7 3.74-1.023 5.598c-6.078 29.662-1.889 52.842 11.514 67.126c13.588 14.589 35.074 20.446 74.970 5.953c2.801-1.149 5.628-2.407 8.466-3.77c2.875 1.38 5.747 2.643 8.617 3.8c39.289 13.969 60.705 8.099 74.394-5.782c13.898-14.518 18.712-37.886 11.882-67.742c-.52-2.604-.999-5.222-1.534-7.851c2.506-.779 5.054-1.609 7.589-2.461c24.203-7.529 38.326-21.247 38.326-45.394c0-23.641-14.121-37.314-39.282-45.238zm-191.477 89.364c-5.237-3.365-8.741-8.737-8.741-15.36c0-10.658 10.077-18.265 28.308-24.267c2.152-.671 4.362-1.275 6.588-1.817c5.228 8.382 11.606 15.473 18.941 21.128c-11.165 2.031-21.799 5.365-30.096 9.316zm108.213-142.566c11.192-3.912 23.201-3.387 34.432.989c5.9 2.346 11.287 5.369 15.975 8.999c-5.348 7.529-11.756 14.994-19.019 21.95c-6.675-2.412-13.17-5.694-19.388-9.781zm142.632 89.364c-8.297-3.95-18.931-7.285-30.096-9.316c7.335-5.655 13.712-12.746 18.941-21.128c2.226.542 4.437 1.146 6.588 1.817c18.231 6.002 28.308 13.609 28.308 24.267c0 6.623-3.504 11.995-8.741 15.36zm4.753-41.642c-2.537.931-5.111 1.766-7.697 2.462c.534 2.629 1.013 5.247 1.534 7.851c6.832 29.855 1.921 53.224-11.882 67.742c-13.689 13.881-35.175 7.911-74.394 5.782c-2.87-1.157-5.742-2.42-8.617-3.8c-2.838 1.363-5.665 2.621-8.466 3.77c-39.896 14.493-61.382 8.635-74.97-5.953c-13.403-14.284-17.592-37.464-11.514-67.126c.323-1.858.678-3.721 1.023-5.598c-2.889-.781-5.788-.627-8.686-2.535c-24.913-8.31-39.354-21.611-39.354-45.243c0-23.484 14.017-36.964 38.711-44.761c2.592-.837 5.229-1.63 7.923-2.425c-.488-2.93-.945-5.865-1.485-8.781c-6.162-29.566-2.785-53.595 11.212-68.195c13.333-14.039 36.648-8.091 75.104-5.973c2.872 1.145 5.716 2.43 8.529 3.825c2.765-1.382 5.584-2.652 8.43-3.807c38.286-13.857 61.578-8.005 74.933 5.95c13.929 13.92 17.906 38.305 11.769 68.596c-.38 1.844-.808 3.721-1.273 5.621c2.82.775 5.56 1.649 8.24 2.597c24.841 7.305 39.282 21.088 39.282 45.238c-.001 23.647-14.123 37.065-39.283 45.242z"></path></svg>
